<svg xmlns="http://www.w3.org/2000/svg" data-name="Layer 1" width="799" height="672"><rect id="backgroundrect" width="100%" height="100%" x="0" y="0" fill="none" stroke="none"/><defs><style>.cls-1{fill:#f6f9f8;}.cls-2{fill:#fff;}.cls-3{fill:#d1e8e6;}.cls-4{fill:#00bfc2;}.cls-5{fill:#0086f0;}.cls-6{fill:#324553;}.cls-7{fill:#969092;}.cls-8{fill:#b2ccc9;}</style></defs><title>details-lightbox-1</title><g class="currentLayer" style=""><title>Layer 1</title><rect class="cls-1" x="310.5660095214844" y="496.9209899902344" width="177.50399780273438" height="116.89299774169922" id="svg_1"/><rect class="cls-2" x="23.483999252319336" y="25.408000946044922" width="756.0770263671875" height="431.1619873046875" id="svg_2"/><path class="cls-3" d="M777.562,0 H21.622 A21.622,21.622 0 0 0 2.220446049250313e-16,21.621 v462.6 A21.63,21.63 0 0 0 21.622,505.85 H777.562 A21.632,21.632 0 0 0 799.192,484.22 V21.621 A21.625,21.625 0 0 0 777.562,0 zm-7.238,449.255 H30.027 V30.027 h740.3 V449.255 z" id="svg_3"/><rect class="cls-4" x="50.80500030517578" y="50.99700164794922" width="216.46800231933594" height="90.91699981689453" id="svg_4"/><rect class="cls-5" x="50.80500030517578" y="163.55999755859375" width="697.0269775390625" height="90.91699981689453" id="svg_5"/><rect class="cls-4" x="50.80500030517578" y="406.0039978027344" width="697.0269775390625" height="21.64699935913086" id="svg_6"/><rect class="cls-4" x="288.91900634765625" y="50.99700164794922" width="458.9119873046875" height="90.91699981689453" id="svg_7"/><rect class="cls-6" x="50.80500030517578" y="276.12298583984375" width="216.46800231933594" height="21.64699935913086" id="svg_8"/><rect class="cls-6" x="288.91900634765625" y="276.12298583984375" width="220.7969970703125" height="21.64699935913086" id="svg_9"/><rect class="cls-7" x="531.3629760742188" y="276.12298583984375" width="216.46800231933594" height="108.23400115966797" id="svg_10"/><rect class="cls-6" x="50.80500030517578" y="319.4169921875" width="216.46800231933594" height="21.64699935913086" id="svg_11"/><rect class="cls-6" x="288.91900634765625" y="319.4169921875" width="220.7969970703125" height="21.64699935913086" id="svg_12"/><rect class="cls-6" x="50.80500030517578" y="362.71099853515625" width="216.46800231933594" height="21.64699935913086" id="svg_13"/><rect class="cls-6" x="288.91900634765625" y="362.71099853515625" width="220.7969970703125" height="21.64699935913086" id="svg_14"/><path class="cls-2" d="M590.901,297.073 v67.369 H690.992 V297.073 h-100.1 zm84.346,7.5 a8.387,8.387 0 1 1 -8.388,8.388 A8.387,8.387 0 0 1 675.247,304.577 zm-74.72,50.24 V329.742 l8.008,-16.776 l16.578,25.164 L641.792,321.351 l16.726,25.164 l8.363,-8.428 l16.751,16.73 H600.528 z" id="svg_15"/><rect class="cls-3" x="262.9429931640625" y="613.81298828125" width="272.75" height="21.64699935913086" id="svg_16"/><rect class="cls-2" x="83.08568382263184" y="351.0364852529357" width="149.78208923339844" height="271.5950623696299" id="svg_17"/><path class="cls-8" d="M224.42300462051435,348.92841787581983 H91.2761807466672 A8.32139724226765,12.191337486770758 0 0 0 82.95329417187793,361.11902804261166 V613.8227181208282 a8.321893686441511,12.192064806749686 0 0 0 8.323383018963096,12.194246766686465 h133.14632742967328 A8.321893686441511,12.192064806749686 0 0 0 232.74539475112965,613.8227181208282 V361.11902804261166 A8.32139724226765,12.191337486770758 0 0 0 224.42300462051435,348.92841787581983 zM158.12685675469243,620.4122371299048 a4.640263693084101,6.798259843028652 0 1 1 4.6357956955193504,-6.794623243134019 A4.645724578996579,6.806260362796846 0 0 1 158.12685675469243,620.4122371299048 zm57.975247067728105,-18.780129175868495 H99.5990673214564 V373.3110928493613 H216.10210382242064 V601.6321079540364 z" id="svg_18"/><rect class="cls-4" x="106.33924961090088" y="404.5409049987793" width="29.408668518066406" height="37.332000732421875" id="svg_19"/><rect class="cls-4" x="109.25186729201153" y="501.34942531585693" width="43.97178039667948" height="37.332000732421875" id="svg_20"/><rect class="cls-4" x="161.58676806076278" y="501.34942531585693" width="44.94265146242715" height="37.332000732421875" id="svg_21"/><rect class="cls-4" x="-233.6521759033203" y="510.0872917175293" width="65.33100128173828" height="37.332000732421875" id="svg_22"/><rect class="cls-5" x="106.3392352467398" y="383.24571696802013" width="102.03764888285566" height="15.001904916206286" id="svg_23"/><rect class="cls-6" x="108.28100848868309" y="455.1534538269043" width="101.0667616727416" height="9.333000183105469" id="svg_24"/><rect class="cls-6" x="108.28097039060049" y="470.90685609962657" width="102.03763874170808" height="9.33300062034311" id="svg_25"/><rect class="cls-6" x="20.902339935302734" y="698.3107070922852" width="214.65899658203125" height="9.333000183105469" id="svg_26"/><rect class="cls-5" x="-262.59281158447266" y="378.7999725341797" width="214.65899658203125" height="9.333000183105469" id="svg_27"/><rect class="cls-6" x="109.25185028593802" y="485.9087562561035" width="63.45230883004387" height="9.333000183105469" id="svg_28"/><rect class="cls-6" x="-137.35009002685547" y="258.94366455078125" width="111.99600219726562" height="9.333000183105469" id="svg_29"/><rect class="cls-6" x="-194.63166046142578" y="431.97862243652344" width="111.99600219726562" height="9.333000183105469" id="svg_30"/><rect class="cls-4" x="142.16926579135304" y="404.5409049987793" width="67.1794571299308" height="37.332000732421875" id="svg_31"/><rect class="cls-4" x="-308.22388458251953" y="656.7523307800293" width="214.65899658203125" height="23.33300018310547" id="svg_32"/><rect class="cls-7" x="108.25175857532963" y="549.015552520752" width="98.18437099740557" height="46.665000915527344" id="svg_33"/><path class="cls-2" d="M137.0673718261719,558.1295420227051 v29.312 h43.55 V558.1295420227051 h-43.55 zm36.7,3.267 a3.648,3.648 0 1 1 -3.6500000000000004,3.6500000000000004 A3.648,3.648 0 0 1 173.76537182617187,561.396542022705 zM141.2573718261719,583.2485420227051 v-10.91 l3.484,-7.3 l7.212,10.947 l7.26,-7.3 l7.276,10.951 l3.6390000000000002,-3.669 l7.287,7.2780000000000005 H141.2573718261719 z" id="svg_34"/></g></svg>